<?xml version="1.0" encoding="UTF-8"?>
<!DOCTYPE svg PUBLIC "-//W3C//DTD SVG 1.1//EN" "http://www.w3.org/Graphics/SVG/1.1/DTD/svg11.dtd">
<svg xmlns="http://www.w3.org/2000/svg" version="1.1" width="1000px" height="1000px" style="shape-rendering:geometricPrecision; text-rendering:geometricPrecision; image-rendering:optimizeQuality; fill-rule:evenodd; clip-rule:evenodd" xmlns:xlink="http://www.w3.org/1999/xlink">
<g><path style="opacity:0.999" fill="#096a2e" d="M 470.5,-0.5 C 489.833,-0.5 509.167,-0.5 528.5,-0.5C 683.283,11.7931 807.783,79.1264 902,201.5C 960.334,281.658 992.834,371.325 999.5,470.5C 999.5,489.833 999.5,509.167 999.5,528.5C 987.202,683.294 919.868,807.794 797.5,902C 717.341,960.334 627.675,992.834 528.5,999.5C 509.167,999.5 489.833,999.5 470.5,999.5C 315.703,987.2 191.203,919.867 97,797.5C 38.6658,717.341 6.16576,627.675 -0.5,528.5C -0.5,509.167 -0.5,489.833 -0.5,470.5C 11.7982,315.706 79.1315,191.206 201.5,97C 281.66,38.6652 371.327,6.16523 470.5,-0.5 Z"/></g>
<g><path style="opacity:1" fill="#4e9e5e" d="M 497.5,213.5 C 500.425,213.46 503.091,214.293 505.5,216C 526.5,228.167 547.5,240.333 568.5,252.5C 569.833,279.5 569.833,306.5 568.5,333.5C 545.625,346.77 522.625,359.77 499.5,372.5C 476.375,359.77 453.375,346.77 430.5,333.5C 429.167,306.5 429.167,279.5 430.5,252.5C 453.06,239.726 475.394,226.726 497.5,213.5 Z"/></g>
<g><path style="opacity:1" fill="#0c6c2f" d="M 497.5,229.5 C 501.362,230.428 505.029,231.928 508.5,234C 523.585,242.96 538.751,251.793 554,260.5C 554.667,282.167 554.667,303.833 554,325.5C 536.04,336.229 517.873,346.562 499.5,356.5C 481.127,346.562 462.96,336.229 445,325.5C 444.167,303.826 444.334,282.159 445.5,260.5C 462.897,250.141 480.23,239.807 497.5,229.5 Z"/></g>
<g><path style="opacity:1" fill="#4f9f5f" d="M 498.5,234.5 C 516.017,243.509 533.184,253.176 550,263.5C 550.667,283.167 550.667,302.833 550,322.5C 533.411,332.546 516.578,342.213 499.5,351.5C 482.422,342.213 465.589,332.546 449,322.5C 448.333,302.833 448.333,283.167 449,263.5C 465.481,253.681 481.981,244.014 498.5,234.5 Z"/></g>
<g><path style="opacity:1" fill="#0f6e31" d="M 498.5,250.5 C 511.094,257.244 523.594,264.244 536,271.5C 536.667,285.833 536.667,300.167 536,314.5C 523.752,321.374 511.585,328.374 499.5,335.5C 487.415,328.374 475.248,321.374 463,314.5C 462.333,300.167 462.333,285.833 463,271.5C 475.144,264.852 486.977,257.852 498.5,250.5 Z"/></g>
<g><path style="opacity:1" fill="#4f9f5f" d="M 498.5,255.5 C 509.388,261.044 520.055,267.044 530.5,273.5C 531.833,286.5 531.833,299.5 530.5,312.5C 520.167,318.5 509.833,324.5 499.5,330.5C 489.167,324.5 478.833,318.5 468.5,312.5C 467.167,299.5 467.167,286.5 468.5,273.5C 478.802,267.836 488.802,261.836 498.5,255.5 Z"/></g>
<g><path style="opacity:1" fill="#0a6a2e" d="M 498.5,271.5 C 504.938,274.553 511.271,277.886 517.5,281.5C 518.833,289.167 518.833,296.833 517.5,304.5C 511.5,307.833 505.5,311.167 499.5,314.5C 493.5,311.167 487.5,307.833 481.5,304.5C 480.167,296.833 480.167,289.167 481.5,281.5C 487.394,278.392 493.061,275.059 498.5,271.5 Z"/></g>
<g><path style="opacity:1" fill="#4f9f5f" d="M 388.5,452.5 C 462.501,452.333 536.501,452.5 610.5,453C 612.626,459.264 611.293,464.598 606.5,469C 574.177,467.952 541.843,466.785 509.5,465.5C 509.333,561.167 509.5,656.834 510,752.5C 510.57,761.75 511.736,770.916 513.5,780C 508.298,786.508 501.965,787.841 494.5,784C 492.438,781.932 491.272,779.432 491,776.5C 490.647,672.832 490.147,569.165 489.5,465.5C 457.128,466.202 424.795,467.368 392.5,469C 387.669,464.424 386.335,458.924 388.5,452.5 Z"/></g>
</svg>
